<svg width="48" height="48" viewBox="0 0 48 48" fill="none" xmlns="http://www.w3.org/2000/svg">
<path d="M34 20H46V8M46 20L36.72 11.28C34.5705 9.12943 31.9113 7.55841 28.9904 6.71355C26.0695 5.86868 22.9822 5.7775 20.0166 6.44851C17.0509 7.11953 14.3036 8.53087 12.0309 10.5508C9.75827 12.5708 8.03434 15.1336 7.02 18M14 28H2V40M2 28L11.28 36.72C13.4295 38.8706 16.0887 40.4416 19.0096 41.2865C21.9305 42.1313 25.0178 42.2225 27.9834 41.5515C30.9491 40.8805 33.6964 39.4691 35.9691 37.4492C38.2417 35.4292 39.9657 32.8664 40.98 30" stroke="currentColor" stroke-width="4" stroke-linecap="round" stroke-linejoin="round"/>
</svg>
